<svg version="1.1" id="Layer_1" xmlns="http://www.w3.org/2000/svg" xmlns:xlink="http://www.w3.org/1999/xlink" x="0px" y="0px"
	 width="100%" viewBox="0 0 500 500" enable-background="new 0 0 500 500" xml:space="preserve">
<path fill="#000000" opacity="1.000000" stroke="none" 
	d="
M272.000000,501.000000 
	C181.333359,501.000000 91.166710,501.000000 1.000048,501.000000 
	C1.000032,334.333405 1.000032,167.666794 1.000016,1.000138 
	C167.666565,1.000092 334.333130,1.000092 500.999756,1.000046 
	C500.999847,167.666519 500.999847,334.333038 500.999939,500.999786 
	C424.833344,501.000000 348.666656,501.000000 272.000000,501.000000 
M248.780701,224.214401 
	C248.798645,220.061096 248.889359,215.906570 248.819321,211.754745 
	C248.674500,203.169006 248.444122,194.584732 248.183395,185.298965 
	C247.177628,183.748901 246.171844,182.198822 245.442337,180.053452 
	C246.120956,178.486023 246.799576,176.918579 247.517014,175.261475 
	C243.515305,175.261475 239.937775,175.261475 236.477509,175.261475 
	C236.477509,191.227173 236.477509,206.915451 236.477509,222.631226 
	C238.549881,223.035004 240.747192,223.463150 243.707901,224.094650 
	C245.250366,224.358307 246.792816,224.621964 248.780701,224.214401 
M266.764801,231.843658 
	C266.815857,221.155884 266.866913,210.468094 267.198273,199.299377 
	C266.243347,198.230469 265.288452,197.161560 264.364288,195.319717 
	C265.004730,193.067017 265.645203,190.814316 266.433929,188.040161 
	C262.568634,188.040161 259.734711,187.449799 257.352631,188.233215 
	C255.555084,188.824417 253.109344,191.132874 253.056061,192.746490 
	C252.683517,204.027191 252.858948,215.326004 252.858948,226.602417 
	C255.778122,227.916336 258.466370,229.126312 261.464020,230.815643 
	C262.958252,231.301865 264.452515,231.788086 266.764801,231.843658 
M257.616455,250.004684 
	C264.660553,250.799042 271.704681,251.593384 278.748779,252.387741 
	C279.095673,251.639679 279.442535,250.891602 279.789429,250.143539 
	C273.906219,244.753006 268.383026,238.888168 262.054169,234.084793 
	C252.906433,227.141937 241.936798,225.311676 230.688629,225.023087 
	C220.802124,224.769424 210.687180,225.976501 201.069748,220.425934 
	C201.595169,224.367844 202.684845,227.983414 203.796112,231.592346 
	C209.090759,248.787094 220.717789,259.966064 237.598129,265.116028 
	C250.597092,269.081848 263.631226,268.606537 275.350677,260.342072 
	C276.297180,259.674591 276.900391,258.520294 277.663116,257.592194 
	C276.546356,257.066284 275.479675,256.317780 274.304108,256.053192 
	C269.360657,254.940567 264.359772,254.077927 259.429962,252.912094 
	C256.471985,252.212585 253.606430,251.122284 250.699341,250.207626 
	C250.824463,249.783173 250.949570,249.358719 251.074677,248.934265 
	C252.979248,249.271683 254.883804,249.609116 257.616455,250.004684 
M297.950104,230.876556 
	C296.737030,222.606537 292.363281,216.437256 285.846405,211.908310 
	C281.400360,224.626068 274.426453,237.109314 283.366882,251.051437 
	C284.395935,249.572647 285.095337,248.567520 286.363464,246.745148 
	C286.627869,248.999695 286.763275,250.154526 286.947174,251.722534 
	C295.669617,247.503723 297.897247,240.222015 297.950104,230.876556 
M227.316681,221.978241 
	C228.517136,221.269104 230.727463,220.602661 230.759521,219.844131 
	C231.035400,213.317459 230.918045,206.774185 230.918045,200.261200 
	C225.909683,200.261200 221.593445,200.261200 217.649414,200.261200 
	C217.291229,204.009750 216.967499,207.397537 216.652252,210.696579 
	C216.852325,212.491501 217.476456,214.442017 217.188934,216.247330 
	C216.526901,220.404114 217.641327,222.011551 221.905533,222.062820 
	C223.398193,222.080765 224.891815,222.017151 227.316681,221.978241 
M221.702911,295.059326 
	C220.533325,295.367279 219.363739,295.675262 218.194153,295.983246 
	C218.247116,296.377747 218.300064,296.772278 218.353027,297.166809 
	C219.778992,297.677826 221.204956,298.188873 223.049194,298.849792 
	C222.098694,299.879944 221.582199,300.796112 220.798843,301.225830 
	C217.711594,302.919434 214.640732,305.571045 211.293076,301.455383 
	C208.546906,298.079224 208.090836,292.933807 210.535217,290.064026 
	C213.629105,286.431610 216.471863,286.271149 220.897583,289.356598 
	C221.735687,289.940918 222.799881,290.200928 224.834076,291.069061 
	C221.171585,284.719452 216.417572,283.026093 211.441162,285.281891 
	C206.820602,287.376373 204.326202,296.488678 206.856735,302.029358 
	C208.434906,305.484802 215.005692,307.853760 219.018066,306.537079 
	C221.119034,305.847687 223.306107,305.420685 225.928711,304.754730 
	C225.928711,302.989807 225.856339,300.844116 225.947739,298.705444 
	C226.052460,296.255829 225.181381,294.865448 221.702911,295.059326 
M345.053192,294.536835 
	C345.208313,298.227081 345.363403,301.917297 345.518524,305.607544 
	C346.270081,305.581696 347.021667,305.555847 347.773254,305.529968 
	C347.773254,301.207916 347.773254,296.885834 347.773254,292.563782 
	C350.820709,296.213867 352.459930,300.016449 354.636475,303.481567 
	C355.395752,304.690399 357.480682,305.066589 358.960205,305.823029 
	C359.620270,304.520447 360.757233,303.250763 360.849701,301.909088 
	C361.111877,298.105286 361.027283,294.269653 360.913879,290.451447 
	C360.862640,288.727539 360.419220,287.015289 360.153717,285.297729 
	C359.621368,285.324646 359.089020,285.351532 358.556641,285.378448 
	C358.207153,290.027954 357.857635,294.677429 357.508148,299.326935 
	C356.998962,299.387054 356.489777,299.447205 355.980591,299.507355 
	C354.666046,296.936615 353.509338,294.267883 351.991455,291.823395 
	C350.545715,289.495087 348.723114,287.400757 347.066193,285.203552 
	C346.394012,287.994171 345.721802,290.784790 345.053192,294.536835 
M190.772614,306.900330 
	C195.639084,307.047485 199.436737,305.612671 201.219528,300.526672 
	C203.109253,295.135620 202.119003,290.228607 198.065353,286.591003 
	C195.142487,283.968109 189.357651,283.832855 186.284164,286.227081 
	C181.933472,289.616211 181.494110,294.379089 182.081207,299.207214 
	C182.615189,303.598389 185.616180,306.057312 190.772614,306.900330 
M298.038574,285.037720 
	C294.140564,284.515442 292.622925,286.151093 293.005707,290.094421 
	C293.293274,293.056885 293.061859,296.069519 293.065308,299.059814 
	C293.073090,305.793823 293.074097,305.793793 299.689575,306.014221 
	C307.073914,306.260223 310.828735,302.786957 310.660645,295.865784 
	C310.494324,289.016785 305.582245,284.510406 298.038574,285.037720 
M284.109222,303.348755 
	C285.047821,304.237427 285.986420,305.126099 286.925018,306.014771 
	C287.286163,305.725952 287.647278,305.437164 288.008423,305.148346 
	C287.057648,302.591370 286.106873,300.034363 285.060730,297.220917 
	C288.802368,294.802246 289.166168,291.205719 287.025269,287.853363 
	C283.520782,282.365753 278.320618,285.179291 273.702179,285.533020 
	C272.162872,293.968018 272.761841,302.790253 275.448059,305.699524 
	C275.647491,303.846466 275.606049,302.409943 275.996338,301.102295 
	C276.410553,299.714600 277.234619,298.449219 277.879669,297.130432 
	C279.275055,297.968567 280.805695,298.650238 282.019073,299.699005 
	C282.851593,300.418549 283.243134,301.648315 284.109222,303.348755 
M234.024872,299.894012 
	C233.863831,295.044464 233.702789,290.194885 233.541748,285.345337 
	C232.701889,285.383331 231.862030,285.421326 231.022171,285.459320 
	C231.022171,290.118561 231.020935,294.777771 231.022507,299.436981 
	C231.024353,304.934082 233.215210,306.972687 239.069061,306.928253 
	C243.628159,306.893677 246.869034,303.793884 246.936478,299.308563 
	C246.988937,295.819366 247.016052,292.325958 246.894669,288.839996 
	C246.852005,287.614777 246.334366,286.406067 246.033615,285.189850 
	C245.337860,285.246826 244.642120,285.303802 243.946381,285.360779 
	C243.946381,289.510651 244.304550,293.704834 243.799347,297.792236 
	C243.536133,299.921783 242.235596,302.756409 240.538101,303.677490 
	C238.073486,305.014832 235.372452,303.776794 234.024872,299.894012 
M256.720856,288.473999 
	C254.793869,294.033020 252.866867,299.592010 250.857697,305.388153 
	C251.722076,305.383789 268.488525,305.299072 269.009003,305.296448 
	C266.978394,299.467010 265.085693,293.760406 262.965424,288.139587 
	C262.438873,286.743744 261.175964,285.625702 260.251526,284.379944 
	C259.162903,285.508575 258.074249,286.637177 256.720856,288.473999 
M174.292450,289.825378 
	C175.195526,290.027069 176.098587,290.228760 177.704422,290.587372 
	C173.948181,284.704163 169.475510,282.733795 164.369720,285.141205 
	C160.906021,286.774384 159.665894,290.433838 160.032440,294.385803 
	C160.109039,295.211670 160.080765,296.051483 160.046616,296.882660 
	C159.918182,300.010345 159.355576,303.269470 162.864059,305.165710 
	C166.967499,307.383545 171.149429,307.814575 175.068466,305.022034 
	C176.346649,304.111237 176.966476,302.276520 178.554230,299.841858 
	C172.545059,300.653351 168.423706,308.105804 163.748917,300.899933 
	C162.116455,298.383606 162.663864,290.926331 164.564697,289.128052 
	C167.679230,286.181427 170.785950,286.577057 174.292450,289.825378 
M337.334717,304.670746 
	C338.043121,305.009613 338.751556,305.348480 339.459930,305.687347 
	C339.649475,304.653351 340.266205,303.465637 339.958466,302.610626 
	C338.124298,297.514374 336.253265,292.413300 333.984039,287.503601 
	C333.370392,286.175995 331.334137,285.505890 329.641571,284.316681 
	C327.059875,292.066406 324.826416,298.770844 322.592957,305.475250 
	C322.976532,305.693756 323.360138,305.912262 323.743713,306.130768 
	C324.501556,305.239075 325.367615,304.417480 325.998138,303.443359 
	C328.480774,299.607819 334.689667,299.891083 337.334717,304.670746 
M153.347366,296.220276 
	C153.175323,292.036530 149.964310,294.215454 148.227798,294.059540 
	C145.512680,293.815613 144.461090,292.460968 145.116486,290.257538 
	C145.491943,288.995239 147.066406,287.499817 148.341843,287.224426 
	C150.617966,286.732941 153.076462,287.086090 155.458710,287.086090 
	C155.447937,286.530884 155.437164,285.975677 155.426392,285.420502 
	C151.231354,282.029388 146.860016,286.248322 142.103867,285.092438 
	C142.103867,291.674957 142.051651,297.451355 142.163223,303.224609 
	C142.178970,304.040344 142.960068,305.517242 143.443527,305.541077 
	C147.320969,305.732483 151.212036,305.648102 155.098923,305.648102 
	C155.078842,305.099335 155.058762,304.550598 155.038681,304.001831 
	C152.596695,304.001831 150.055771,304.401886 147.754532,303.832764 
	C146.607086,303.549011 145.294449,301.540314 145.187775,300.220459 
	C145.106689,299.217316 146.611664,297.595276 147.772110,297.107056 
	C149.213074,296.500824 151.026321,296.779480 153.347366,296.220276 
z"/>
<path fill="#089148" opacity="1.000000" stroke="none" 
	d="
M257.202393,249.975616 
	C254.883804,249.609116 252.979248,249.271683 251.074677,248.934265 
	C250.949570,249.358719 250.824463,249.783173 250.699341,250.207626 
	C253.606430,251.122284 256.471985,252.212585 259.429962,252.912094 
	C264.359772,254.077927 269.360657,254.940567 274.304108,256.053192 
	C275.479675,256.317780 276.546356,257.066284 277.663116,257.592194 
	C276.900391,258.520294 276.297180,259.674591 275.350677,260.342072 
	C263.631226,268.606537 250.597092,269.081848 237.598129,265.116028 
	C220.717789,259.966064 209.090759,248.787094 203.796112,231.592346 
	C202.684845,227.983414 201.595169,224.367844 201.069748,220.425934 
	C210.687180,225.976501 220.802124,224.769424 230.688629,225.023087 
	C241.936798,225.311676 252.906433,227.141937 262.054169,234.084793 
	C268.383026,238.888168 273.906219,244.753006 279.789429,250.143539 
	C279.442535,250.891602 279.095673,251.639679 278.748779,252.387741 
	C271.704681,251.593384 264.660553,250.799042 257.202393,249.975616 
z"/>
<path fill="#089148" opacity="1.000000" stroke="none" 
	d="
M297.962036,231.311432 
	C297.897247,240.222015 295.669617,247.503723 286.947174,251.722534 
	C286.763275,250.154526 286.627869,248.999695 286.363464,246.745148 
	C285.095337,248.567520 284.395935,249.572647 283.366882,251.051437 
	C274.426453,237.109314 281.400360,224.626068 285.846405,211.908310 
	C292.363281,216.437256 296.737030,222.606537 297.962036,231.311432 
z"/>
<path fill="#DE9A41" opacity="1.000000" stroke="none" 
	d="
M242.944504,223.891281 
	C240.747192,223.463150 238.549881,223.035004 236.477509,222.631226 
	C236.477509,206.915451 236.477509,191.227173 236.477509,175.261475 
	C239.937775,175.261475 243.515305,175.261475 247.517014,175.261475 
	C246.799576,176.918579 246.120956,178.486023 245.159134,180.548798 
	C244.350433,182.550781 243.395172,184.049469 243.367065,185.565338 
	C243.130142,198.338867 243.062820,211.115555 242.944504,223.891281 
z"/>
<path fill="#2CB377" opacity="1.000000" stroke="none" 
	d="
M261.154602,230.336304 
	C258.466370,229.126312 255.778122,227.916336 252.858948,226.602417 
	C252.858948,215.326004 252.683517,204.027191 253.056061,192.746490 
	C253.109344,191.132874 255.555084,188.824417 257.352631,188.233215 
	C259.734711,187.449799 262.568634,188.040161 266.433929,188.040161 
	C265.645203,190.814316 265.004730,193.067017 264.047577,195.792648 
	C262.648132,195.463882 261.565399,194.662170 260.057404,193.545563 
	C260.057404,201.273132 259.926483,208.694138 260.104614,216.107727 
	C260.218689,220.856247 260.788849,225.593826 261.154602,230.336304 
z"/>
<path fill="#2CB377" opacity="1.000000" stroke="none" 
	d="
M226.850845,221.984512 
	C224.891815,222.017151 223.398193,222.080765 221.905533,222.062820 
	C217.641327,222.011551 216.526901,220.404114 217.188934,216.247330 
	C217.476456,214.442017 216.852325,212.491501 216.652252,210.696579 
	C216.967499,207.397537 217.291229,204.009750 217.649414,200.261200 
	C221.593445,200.261200 225.909683,200.261200 230.918045,200.261200 
	C230.918045,206.774185 231.035400,213.317459 230.759521,219.844131 
	C230.727463,220.602661 228.517136,221.269104 226.850845,221.984512 
z"/>
<path fill="#089148" opacity="1.000000" stroke="none" 
	d="
M261.309326,230.575974 
	C260.788849,225.593826 260.218689,220.856247 260.104614,216.107727 
	C259.926483,208.694138 260.057404,201.273132 260.057404,193.545563 
	C261.565399,194.662170 262.648132,195.463882 264.032227,196.179108 
	C265.288452,197.161560 266.243347,198.230469 266.722778,199.837585 
	C266.147095,211.008636 266.046906,221.641464 265.946747,232.274292 
	C264.452515,231.788086 262.958252,231.301865 261.309326,230.575974 
z"/>
<path fill="#325846" opacity="1.000000" stroke="none" 
	d="
M243.326202,223.992966 
	C243.062820,211.115555 243.130142,198.338867 243.367065,185.565338 
	C243.395172,184.049469 244.350433,182.550781 245.020996,180.846436 
	C246.171844,182.198822 247.177628,183.748901 248.178894,186.109070 
	C248.228027,199.574661 248.281647,212.230133 248.335266,224.885620 
	C246.792816,224.621964 245.250366,224.358307 243.326202,223.992966 
z"/>
<path fill="#325846" opacity="1.000000" stroke="none" 
	d="
M222.116241,295.072449 
	C225.181381,294.865448 226.052460,296.255829 225.947739,298.705444 
	C225.856339,300.844116 225.928711,302.989807 225.928711,304.754730 
	C223.306107,305.420685 221.119034,305.847687 219.018066,306.537079 
	C215.005692,307.853760 208.434906,305.484802 206.856735,302.029358 
	C204.326202,296.488678 206.820602,287.376373 211.441162,285.281891 
	C216.417572,283.026093 221.171585,284.719452 224.834076,291.069061 
	C222.799881,290.200928 221.735687,289.940918 220.897583,289.356598 
	C216.471863,286.271149 213.629105,286.431610 210.535217,290.064026 
	C208.090836,292.933807 208.546906,298.079224 211.293076,301.455383 
	C214.640732,305.571045 217.711594,302.919434 220.798843,301.225830 
	C221.582199,300.796112 222.098694,299.879944 223.049194,298.849792 
	C221.204956,298.188873 219.778992,297.677826 218.353027,297.166809 
	C218.300064,296.772278 218.247116,296.377747 218.194153,295.983246 
	C219.363739,295.675262 220.533325,295.367279 222.116241,295.072449 
z"/>
<path fill="#325846" opacity="1.000000" stroke="none" 
	d="
M345.051392,294.056122 
	C345.721802,290.784790 346.394012,287.994171 347.066193,285.203552 
	C348.723114,287.400757 350.545715,289.495087 351.991455,291.823395 
	C353.509338,294.267883 354.666046,296.936615 355.980591,299.507355 
	C356.489777,299.447205 356.998962,299.387054 357.508148,299.326935 
	C357.857635,294.677429 358.207153,290.027954 358.556641,285.378448 
	C359.089020,285.351532 359.621368,285.324646 360.153717,285.297729 
	C360.419220,287.015289 360.862640,288.727539 360.913879,290.451447 
	C361.027283,294.269653 361.111877,298.105286 360.849701,301.909088 
	C360.757233,303.250763 359.620270,304.520447 358.960205,305.823029 
	C357.480682,305.066589 355.395752,304.690399 354.636475,303.481567 
	C352.459930,300.016449 350.820709,296.213867 347.773254,292.563782 
	C347.773254,296.885834 347.773254,301.207916 347.773254,305.529968 
	C347.021667,305.555847 346.270081,305.581696 345.518524,305.607544 
	C345.363403,301.917297 345.208313,298.227081 345.051392,294.056122 
z"/>
<path fill="#325846" opacity="1.000000" stroke="none" 
	d="
M190.370270,306.853912 
	C185.616180,306.057312 182.615189,303.598389 182.081207,299.207214 
	C181.494110,294.379089 181.933472,289.616211 186.284164,286.227081 
	C189.357651,283.832855 195.142487,283.968109 198.065353,286.591003 
	C202.119003,290.228607 203.109253,295.135620 201.219528,300.526672 
	C199.436737,305.612671 195.639084,307.047485 190.370270,306.853912 
M193.123337,287.231232 
	C190.939575,288.160980 188.334015,288.621979 186.665100,290.123840 
	C183.733673,292.761810 184.720871,300.281708 187.884842,302.766449 
	C190.573929,304.878296 194.910675,303.627289 197.734482,299.925171 
	C200.745300,295.977875 198.940353,290.380585 193.123337,287.231232 
z"/>
<path fill="#325846" opacity="1.000000" stroke="none" 
	d="
M298.438721,285.028992 
	C305.582245,284.510406 310.494324,289.016785 310.660645,295.865784 
	C310.828735,302.786957 307.073914,306.260223 299.689575,306.014221 
	C293.074097,305.793793 293.073090,305.793823 293.065308,299.059814 
	C293.061859,296.069519 293.293274,293.056885 293.005707,290.094421 
	C292.622925,286.151093 294.140564,284.515442 298.438721,285.028992 
M306.393311,299.840973 
	C309.537415,293.259125 306.081543,287.396179 298.833313,287.275055 
	C297.912109,287.259644 296.196533,288.455780 296.162231,289.155090 
	C295.925537,293.979065 296.037659,298.820129 296.037659,304.981659 
	C300.226349,303.074982 303.085052,301.773743 306.393311,299.840973 
z"/>
<path fill="#325846" opacity="1.000000" stroke="none" 
	d="
M283.970520,302.999390 
	C283.243134,301.648315 282.851593,300.418549 282.019073,299.699005 
	C280.805695,298.650238 279.275055,297.968567 277.879669,297.130432 
	C277.234619,298.449219 276.410553,299.714600 275.996338,301.102295 
	C275.606049,302.409943 275.647491,303.846466 275.448059,305.699524 
	C272.761841,302.790253 272.162872,293.968018 273.702179,285.533020 
	C278.320618,285.179291 283.520782,282.365753 287.025269,287.853363 
	C289.166168,291.205719 288.802368,294.802246 285.060730,297.220917 
	C286.106873,300.034363 287.057648,302.591370 288.008423,305.148346 
	C287.647278,305.437164 287.286163,305.725952 286.925018,306.014771 
	C285.986420,305.126099 285.047821,304.237427 283.970520,302.999390 
M280.049805,294.981659 
	C281.785095,293.332428 285.240631,290.625153 284.980927,290.202881 
	C283.068176,287.092896 279.856689,286.719330 276.115936,287.644714 
	C276.716400,290.520782 273.657501,294.441132 280.049805,294.981659 
z"/>
<path fill="#325846" opacity="1.000000" stroke="none" 
	d="
M234.092545,300.326355 
	C235.372452,303.776794 238.073486,305.014832 240.538101,303.677490 
	C242.235596,302.756409 243.536133,299.921783 243.799347,297.792236 
	C244.304550,293.704834 243.946381,289.510651 243.946381,285.360779 
	C244.642120,285.303802 245.337860,285.246826 246.033615,285.189850 
	C246.334366,286.406067 246.852005,287.614777 246.894669,288.839996 
	C247.016052,292.325958 246.988937,295.819366 246.936478,299.308563 
	C246.869034,303.793884 243.628159,306.893677 239.069061,306.928253 
	C233.215210,306.972687 231.024353,304.934082 231.022507,299.436981 
	C231.020935,294.777771 231.022171,290.118561 231.022171,285.459320 
	C231.862030,285.421326 232.701889,285.383331 233.541748,285.345337 
	C233.702789,290.194885 233.863831,295.044464 234.092545,300.326355 
z"/>
<path fill="#325846" opacity="1.000000" stroke="none" 
	d="
M256.853241,288.119904 
	C258.074249,286.637177 259.162903,285.508575 260.251526,284.379944 
	C261.175964,285.625702 262.438873,286.743744 262.965424,288.139587 
	C265.085693,293.760406 266.978394,299.467010 269.009003,305.296448 
	C268.488525,305.299072 251.722076,305.383789 250.857697,305.388153 
	C252.866867,299.592010 254.793869,294.033020 256.853241,288.119904 
M258.787140,291.052063 
	C258.178345,293.048889 257.569550,295.045746 256.794891,297.586639 
	C259.074402,297.586639 260.735229,297.586639 263.476624,297.586639 
	C261.765503,294.783997 260.466492,292.656372 258.787140,291.052063 
z"/>
<path fill="#325846" opacity="1.000000" stroke="none" 
	d="
M174.048645,289.582458 
	C170.785950,286.577057 167.679230,286.181427 164.564697,289.128052 
	C162.663864,290.926331 162.116455,298.383606 163.748917,300.899933 
	C168.423706,308.105804 172.545059,300.653351 178.554230,299.841858 
	C176.966476,302.276520 176.346649,304.111237 175.068466,305.022034 
	C171.149429,307.814575 166.967499,307.383545 162.864059,305.165710 
	C159.355576,303.269470 159.918182,300.010345 160.046616,296.882660 
	C160.080765,296.051483 160.109039,295.211670 160.032440,294.385803 
	C159.665894,290.433838 160.906021,286.774384 164.369720,285.141205 
	C169.475510,282.733795 173.948181,284.704163 177.704422,290.587372 
	C176.098587,290.228760 175.195526,290.027069 174.048645,289.582458 
z"/>
<path fill="#325846" opacity="1.000000" stroke="none" 
	d="
M337.190735,304.329468 
	C334.689667,299.891083 328.480774,299.607819 325.998138,303.443359 
	C325.367615,304.417480 324.501556,305.239075 323.743713,306.130768 
	C323.360138,305.912262 322.976532,305.693756 322.592957,305.475250 
	C324.826416,298.770844 327.059875,292.066406 329.641571,284.316681 
	C331.334137,285.505890 333.370392,286.175995 333.984039,287.503601 
	C336.253265,292.413300 338.124298,297.514374 339.958466,302.610626 
	C340.266205,303.465637 339.649475,304.653351 339.459961,305.687347 
	C338.751556,305.348480 338.043121,305.009613 337.190735,304.329468 
M328.860016,296.209717 
	C327.642883,298.682281 329.178894,299.378540 331.030457,298.873260 
	C332.168793,298.562592 333.830078,296.996460 333.767975,296.096802 
	C333.623901,294.008667 332.576813,291.982910 331.498535,288.735535 
	C330.353882,291.846924 329.682892,293.670715 328.860016,296.209717 
z"/>
<path fill="#325846" opacity="1.000000" stroke="none" 
	d="
M153.013062,296.448120 
	C151.026321,296.779480 149.213074,296.500824 147.772110,297.107056 
	C146.611664,297.595276 145.106689,299.217316 145.187775,300.220459 
	C145.294449,301.540314 146.607086,303.549011 147.754532,303.832764 
	C150.055771,304.401886 152.596695,304.001831 155.038681,304.001831 
	C155.058762,304.550598 155.078842,305.099335 155.098923,305.648102 
	C151.212036,305.648102 147.320969,305.732483 143.443527,305.541077 
	C142.960068,305.517242 142.178970,304.040344 142.163223,303.224609 
	C142.051651,297.451355 142.103867,291.674957 142.103867,285.092438 
	C146.860016,286.248322 151.231354,282.029388 155.426392,285.420502 
	C155.437164,285.975677 155.447937,286.530884 155.458710,287.086090 
	C153.076462,287.086090 150.617966,286.732941 148.341843,287.224426 
	C147.066406,287.499817 145.491943,288.995239 145.116486,290.257538 
	C144.461090,292.460968 145.512680,293.815613 148.227798,294.059540 
	C149.964310,294.215454 153.175323,292.036530 153.013062,296.448120 
z"/>
<path fill="#DE9A41" opacity="1.000000" stroke="none" 
	d="
M248.557983,224.550018 
	C248.281647,212.230133 248.228027,199.574661 248.211670,186.459503 
	C248.444122,194.584732 248.674500,203.169006 248.819321,211.754745 
	C248.889359,215.906570 248.798645,220.061096 248.557983,224.550018 
z"/>
<path fill="#2CB377" opacity="1.000000" stroke="none" 
	d="
M266.355774,232.058990 
	C266.046906,221.641464 266.147095,211.008636 266.582642,200.078064 
	C266.866913,210.468094 266.815857,221.155884 266.355774,232.058990 
z"/>
<path fill="#000000" opacity="1.000000" stroke="none" 
	d="
M193.448578,287.437012 
	C198.940353,290.380585 200.745300,295.977875 197.734482,299.925171 
	C194.910675,303.627289 190.573929,304.878296 187.884842,302.766449 
	C184.720871,300.281708 183.733673,292.761810 186.665100,290.123840 
	C188.334015,288.621979 190.939575,288.160980 193.448578,287.437012 
z"/>
<path fill="#000000" opacity="1.000000" stroke="none" 
	d="
M306.168518,300.156738 
	C303.085052,301.773743 300.226349,303.074982 296.037659,304.981659 
	C296.037659,298.820129 295.925537,293.979065 296.162231,289.155090 
	C296.196533,288.455780 297.912109,287.259644 298.833313,287.275055 
	C306.081543,287.396179 309.537415,293.259125 306.168518,300.156738 
z"/>
<path fill="#000000" opacity="1.000000" stroke="none" 
	d="
M279.642334,294.991486 
	C273.657501,294.441132 276.716400,290.520782 276.115936,287.644714 
	C279.856689,286.719330 283.068176,287.092896 284.980927,290.202881 
	C285.240631,290.625153 281.785095,293.332428 279.642334,294.991486 
z"/>
<path fill="#000000" opacity="1.000000" stroke="none" 
	d="
M258.977295,290.790405 
	C260.466492,292.656372 261.765503,294.783997 263.476624,297.586639 
	C260.735229,297.586639 259.074402,297.586639 256.794891,297.586639 
	C257.569550,295.045746 258.178345,293.048889 258.977295,290.790405 
z"/>
<path fill="#000000" opacity="1.000000" stroke="none" 
	d="
M328.935974,295.852112 
	C329.682892,293.670715 330.353882,291.846924 331.498535,288.735535 
	C332.576813,291.982910 333.623901,294.008667 333.767975,296.096802 
	C333.830078,296.996460 332.168793,298.562592 331.030457,298.873260 
	C329.178894,299.378540 327.642883,298.682281 328.935974,295.852112 
z"/>
</svg>